<?xml version="1.0" encoding="UTF-8"?>
<svg width="115px" height="96px" viewBox="0 0 115 96" version="1.1" xmlns="http://www.w3.org/2000/svg" xmlns:xlink="http://www.w3.org/1999/xlink">
    <!-- Generator: Sketch 55.1 (78136) - https://sketchapp.com -->
    <title>flame</title>
    <desc>Created with Sketch.</desc>
    <defs>
        <linearGradient x1="50%" y1="100%" x2="50%" y2="0%" id="linearGradient-1">
            <stop stop-color="#FAD961" offset="0%"></stop>
            <stop stop-color="#F76B1C" offset="100%"></stop>
        </linearGradient>
    </defs>
    <g id="Page-1" stroke="none" stroke-width="1" fill="none" fill-rule="evenodd">
        <g id="Artboard" transform="translate(-903.000000, -615.000000)" fill="url(#linearGradient-1)" fill-rule="nonzero">
            <g id="flame" transform="translate(903.216455, 615.851745)">
                <path d="M0.0435452352,9.74855478 C-0.169454765,2.48255478 8.87354524,-2.51344522 14.9855452,1.33155478 C40.8555452,14.6515548 73.0125452,14.6455548 98.8815452,1.32455478 C104.818545,-2.32044522 113.617545,2.05755478 113.836545,9.12755478 C113.923545,24.5595548 113.941545,40.0075548 113.860545,55.4445548 C113.979545,62.9775548 104.028545,67.7815548 98.1795452,63.0705548 C93.7275452,59.1445548 89.7125452,54.7295548 85.4295452,50.6095548 C78.6535452,63.8105548 72.2665452,77.2115548 65.4345452,90.3815548 C62.1535452,96.6565548 51.9015452,96.6995548 48.5575452,90.4865548 C41.6875452,77.2915548 35.3445452,63.8105548 28.4365452,50.6285548 C24.2155452,54.7855548 20.1885452,59.1765548 15.7425452,63.0965548 C9.91854524,67.8305548 -0.0134547648,62.9345548 0.0675452352,55.4495548 C-0.0564547648,40.2205548 0.0245452352,24.9845548 0.0435452352,9.74855478 Z" id="Path"></path>
            </g>
        </g>
    </g>
</svg>