<?xml version="1.0" encoding="UTF-8"?>
<svg width="310px" height="406px" viewBox="0 0 310 406" version="1.1" xmlns="http://www.w3.org/2000/svg" xmlns:xlink="http://www.w3.org/1999/xlink">
    <!-- Generator: Sketch 55.1 (78136) - https://sketchapp.com -->
    <title>rocket</title>
    <desc>Created with Sketch.</desc>
    <g id="Page-1" stroke="none" stroke-width="1" fill="none" fill-rule="evenodd">
        <g id="Artboard" transform="translate(-806.000000, -220.000000)" fill-rule="nonzero" stroke="#000000" stroke-width="9">
            <g id="rocket" transform="translate(810.000000, 224.000000)">
                <ellipse id="Oval" fill="#B2D7DC" stroke-linecap="round" stroke-linejoin="round" cx="149.92" cy="160.8303" rx="53.153" ry="56.407"></ellipse>
                <g id="Group" transform="translate(0.000000, 0.780300)" fill="#00D2D3">
                    <path d="M99.19,55.194 C113.337,34.722 128.529,13.581 150.153,0.474 C171.476,13.256 186.519,34.021 200.464,54.13 C233.311,103.884 253.393,163.65 249.342,223.71 C259.957,232.608 270.879,241.151 281.336,250.231 C296.347,264.028 303.356,285.55 299.742,305.558 C294.706,330.833 289.866,356.165 284.536,381.371 C281.573,394.339 264.028,400.276 253.713,391.991 C236.592,377.7 219.897,362.883 202.781,348.574 C189.831,361.036 172.628,369.346 154.567,370.347 C133.776,371.813 113.192,363.191 98.119,349.105 C85.839,358.506 74.453,369.791 62.455,379.86 C56.656,384.52 51.834,390.644 44.971,393.826 C34.331,398.391 20.629,391.578 18.224,380.141 C12.745,355.499 7.021,330.901 1.704,306.221 C-2.617,285.343 5.036,262.611 21.123,248.614 C30.436,240.792 39.879,233.127 49.366,225.518 C52.009,224.128 50.681,220.922 50.831,218.567 C48.003,160.616 67.798,103.337 99.19,55.197 L99.19,55.194 Z M115.993,131.526 C103.569,147.52 105.072,172.294 119.481,186.578 C134.736,203.387 163.631,204 179.587,187.868 C191.904,176.615 196.069,157.722 190.19,142.197 C184.803,127.23 170.381,116.002 154.519,114.606 C139.871,112.92 124.704,119.659 115.993,131.526 Z" id="Shape"></path>
                </g>
            </g>
        </g>
    </g>
</svg>