<?xml version="1.0" encoding="UTF-8"?>
<svg width="1338px" height="1080px" viewBox="0 0 1338 1080" version="1.1" xmlns="http://www.w3.org/2000/svg" xmlns:xlink="http://www.w3.org/1999/xlink">
    <!-- Generator: Sketch 55.1 (78136) - https://sketchapp.com -->
    <title>space</title>
    <desc>Created with Sketch.</desc>
    <defs>
        <linearGradient x1="50%" y1="100%" x2="50%" y2="0%" id="linearGradient-1">
            <stop stop-color="#808080" stop-opacity="0.25" offset="0%"></stop>
            <stop stop-color="#808080" stop-opacity="0.12" offset="54%"></stop>
            <stop stop-color="#808080" stop-opacity="0.1" offset="100%"></stop>
        </linearGradient>
        <linearGradient x1="50%" y1="100%" x2="50%" y2="0.0343170899%" id="linearGradient-2">
            <stop stop-color="#808080" stop-opacity="0.25" offset="0%"></stop>
            <stop stop-color="#808080" stop-opacity="0.12" offset="54%"></stop>
            <stop stop-color="#808080" stop-opacity="0.1" offset="100%"></stop>
        </linearGradient>
        <linearGradient x1="50%" y1="4.10718344e-13%" x2="50%" y2="100%" id="linearGradient-3">
            <stop stop-color="#F2F2F2" offset="0%"></stop>
            <stop stop-color="#E0E0E0" offset="31%"></stop>
            <stop stop-color="#B3B3B3" offset="77%"></stop>
        </linearGradient>
        <linearGradient x1="50%" y1="100%" x2="50%" y2="0%" id="linearGradient-4">
            <stop stop-color="#808080" stop-opacity="0.25" offset="0%"></stop>
            <stop stop-color="#808080" stop-opacity="0.12" offset="54%"></stop>
            <stop stop-color="#808080" stop-opacity="0.1" offset="100%"></stop>
        </linearGradient>
        <linearGradient x1="49.9540293%" y1="99.9430785%" x2="49.9540293%" y2="-0.0566800544%" id="linearGradient-5">
            <stop stop-color="#808080" stop-opacity="0.25" offset="0%"></stop>
            <stop stop-color="#808080" stop-opacity="0.12" offset="54%"></stop>
            <stop stop-color="#808080" stop-opacity="0.1" offset="100%"></stop>
        </linearGradient>
        <linearGradient x1="49.9540293%" y1="99.9430785%" x2="49.9540293%" y2="-0.0566800544%" id="linearGradient-6">
            <stop stop-color="#808080" stop-opacity="0.25" offset="0%"></stop>
            <stop stop-color="#808080" stop-opacity="0.12" offset="54%"></stop>
            <stop stop-color="#808080" stop-opacity="0.1" offset="100%"></stop>
        </linearGradient>
        <linearGradient x1="50%" y1="4.10718344e-13%" x2="50%" y2="100%" id="linearGradient-7">
            <stop stop-color="#F2F2F2" offset="0%"></stop>
            <stop stop-color="#E6E6E6" offset="31%"></stop>
            <stop stop-color="#CCCCCC" offset="77%"></stop>
        </linearGradient>
        <linearGradient x1="50.0721261%" y1="100.095365%" x2="50.0721261%" y2="0.0957582806%" id="linearGradient-8">
            <stop stop-color="#808080" stop-opacity="0.25" offset="0%"></stop>
            <stop stop-color="#808080" stop-opacity="0.12" offset="54%"></stop>
            <stop stop-color="#808080" stop-opacity="0.1" offset="100%"></stop>
        </linearGradient>
    </defs>
    <g id="Page-1" stroke="none" stroke-width="1" fill="none" fill-rule="evenodd">
        <g id="Artboard" transform="translate(-262.000000, 0.000000)" fill-rule="nonzero">
            <g id="space" transform="translate(262.000000, 0.000000)">
                <g id="Group" opacity="0.7" transform="translate(1008.000000, 853.000000)" fill="url(#linearGradient-1)">
                    <ellipse id="Oval" cx="19.3988889" cy="19.2965584" rx="19.2977778" ry="19.1724675"></ellipse>
                </g>
                <g id="Group" opacity="0.7" transform="translate(1094.000000, 1036.000000)" fill="url(#linearGradient-2)">
                    <ellipse id="Oval" cx="21.5226944" cy="22.264" rx="21.4637685" ry="21.3693333"></ellipse>
                </g>
                <circle id="Oval" fill="url(#linearGradient-3)" cx="1116" cy="1059" r="20"></circle>
                <g id="Group" opacity="0.7" transform="translate(192.000000, 916.000000)" fill="url(#linearGradient-4)">
                    <ellipse id="Oval" cx="23.03" cy="23.0893551" rx="22.8021212" ry="22.8891997"></ellipse>
                </g>
                <g id="Group" opacity="0.4" transform="translate(971.000000, 0.000000)" fill="url(#linearGradient-5)">
                    <path d="M115.134482,25.4109091 C109.983419,18.5899875 103.5295,12.8642829 96.1486142,8.56727273 C72.9431115,-4.7957538 43.8789641,-2.21124352 23.3843025,15.0377915 C2.88964098,32.2868265 -4.67130517,60.5272957 4.45489671,85.7399618 C13.5810986,110.952628 37.4510722,127.768587 64.2151977,127.84 C65.5651103,127.84 66.9150229,127.84 68.2504203,127.709091 C91.6599664,126.229312 112.366623,111.984362 122.156831,90.6246812 C131.94704,69.2650008 129.238447,44.2428704 115.105452,25.4836364 L115.134482,25.4109091 Z" id="Path"></path>
                </g>
                <path d="M1096,63.4856695 C1096.00255,95.4123746 1071.18909,121.846008 1039.31779,123.868827 C1038.04944,123.956276 1036.76651,124 1035.48358,124 C1010.05101,123.984949 987.341577,108.074374 978.648218,84.1802698 C969.954859,60.2861658 977.132785,33.50768 996.612563,17.1611931 C1016.09234,0.814706216 1043.71687,-1.61134241 1065.74905,11.0894705 L1065.74905,11.0894705 C1072.7602,15.1600564 1078.89064,20.58527 1083.78295,27.0488134 L1083.78295,27.0488134 C1091.72818,37.5336858 1096.01929,50.331801 1096,63.4856695 Z" id="Path" fill="#00D2D3" opacity="0.2"></path>
                <path d="M1213,936.490644 C1213.00167,957.335352 1196.80114,974.593675 1175.99261,975.914358 C1175.16451,975.971453 1174.32689,976 1173.48928,976 C1156.88454,975.990173 1142.05772,965.602277 1136.38189,950.001994 C1130.70607,934.401712 1135.39248,916.918237 1148.11068,906.245738 C1160.82888,895.573238 1178.86473,893.989289 1193.24938,902.281555 L1193.24938,902.281555 C1197.82691,904.93921 1201.82943,908.481292 1205.02358,912.701291 L1205.02358,912.701291 C1210.21096,919.546787 1213.01259,927.902581 1213,936.490644 Z" id="Path" fill="#00D2D3" opacity="0.2"></path>
                <path d="M177,813.490644 C177.001665,834.335352 160.801142,851.593675 139.992606,852.914358 C139.164509,852.971453 138.326894,853 137.489279,853 C120.884541,852.990173 106.057724,842.602277 100.381895,827.001994 C94.7060653,811.401712 99.3924795,793.918237 112.110682,783.245738 C124.828884,772.573238 142.864733,770.989289 157.249377,779.281555 L157.249377,779.281555 C161.826907,781.93921 165.829425,785.481292 169.023579,789.701291 L169.023579,789.701291 C174.210961,796.546787 177.012592,804.902581 177,813.490644 Z" id="Path" fill="#00D2D3" opacity="0.2"></path>
                <path d="M1072,668.99621 C1072.00067,677.439636 1065.43844,684.430349 1057.00966,684.96531 C1056.67423,684.988437 1056.33494,685 1055.99566,685 C1049.26969,684.99602 1043.26389,680.788264 1040.96482,674.469162 C1038.66575,668.15006 1040.56404,661.068147 1045.71572,656.745109 C1050.8674,652.422071 1058.17306,651.780471 1063.99975,655.139364 L1063.99975,655.139364 C1065.85394,656.215883 1067.47521,657.65065 1068.76904,659.360017 L1068.76904,659.360017 C1070.87026,662.132876 1072.0051,665.517501 1072,668.99621 Z" id="Path" fill="#00D2D3" opacity="0.2"></path>
                <path d="M1020.60528,25.5183011 C1017.52379,26.900045 1014.54999,28.5280212 1011.7106,30.3875982 C1009.81444,31.48071 1008.18673,33.0141966 1006.95432,34.8685465 C1005.72488,36.7681223 1005.6799,39.2401448 1006.83936,41.1866835 C1008.2763,43.2479197 1011.15019,43.5765226 1013.54989,43.7109511 C1018.03996,44.7021763 1022.69572,43.1042311 1025.73516,39.5287327 L1030.86505,34.6893085 C1032.64686,33.0164212 1034.6011,30.7012646 1033.82515,28.3412985 C1033.23601,26.5339827 1031.28176,25.6527295 1029.51432,25.3539996 C1025.10528,24.4520111 1020.5311,25.2879429 1016.68242,27.6990292" id="Path" fill="#F55F44" opacity="0.05"></path>
                <circle id="Oval" fill="#F55F44" opacity="0.05" cx="999" cy="87" r="3"></circle>
                <circle id="Oval" fill="#F55F44" opacity="0.05" cx="1064" cy="67" r="12"></circle>
                <path d="M1084,27.1730013 L1084,27.1730013 C1083.87087,35.7405106 1077.07155,42.6993622 1068.54508,42.9905589 C1060.0186,43.2817555 1052.76432,36.8028628 1052.05602,28.2639537 C1051.34771,19.7250447 1057.43453,12.1298587 1065.89144,11 L1065.89144,11 C1072.93842,15.1279007 1079.09473,20.6261836 1084,27.1730013 L1084,27.1730013 Z" id="Path" fill="#F55F44" opacity="0.05"></path>
                <path d="M1085,97.6121814 C1074.63015,112.527251 1058.11488,121.868544 1040.11469,123 C1040.04301,122.174026 1040,121.333562 1040,120.493098 C1040.00388,109.725398 1046.01041,99.8789642 1055.52678,95.0402264 C1065.04314,90.2014886 1076.44485,91.1964484 1085,97.6121814 L1085,97.6121814 Z" id="Path" fill="#F55F44" opacity="0.05"></path>
                <g id="Group-2" transform="translate(104.000000, 207.000000)">
                    <g id="Group" opacity="0.4" fill="url(#linearGradient-6)">
                        <path d="M98.9436954,21.8375 C94.5170008,15.9757705 88.9706639,11.0552431 82.6277154,7.3625 C62.6854865,-4.12135092 37.7084847,-1.9002874 20.095885,12.9231021 C2.48328522,27.7464915 -4.01440288,52.0156448 3.82842686,73.6827797 C11.6712566,95.3499147 32.1845152,109.80113 55.1849355,109.8625 C56.3450166,109.8625 57.5050978,109.8625 58.652705,109.75 C78.7702837,108.478315 96.5650667,96.2365608 104.978527,77.8805854 C113.391987,59.52461 111.064291,38.0212167 98.9187474,21.9 L98.9436954,21.8375 Z" id="Path"></path>
                    </g>
                    <path d="M107,54.9876828 C107.002192,82.4288178 85.6749206,105.148635 58.2814049,106.887257 C57.1912524,106.962419 56.0885694,107 54.9858865,107 C33.1264842,106.987064 13.6076369,93.3118584 6.13565886,72.7747773 C-1.33631913,52.2376963 4.83313759,29.221477 21.5760873,15.171604 C38.3190369,1.12173096 62.0624327,-0.963467855 80.9991805,9.95293329 L80.9991805,9.95293329 C87.0252954,13.4516187 92.294433,18.1146123 96.4993947,23.6700545 L96.4993947,23.6700545 C103.328354,32.6818456 107.016577,43.6818786 107,54.9876828 Z" id="Path" fill="#00D2D3" opacity="0.2"></path>
                    <path d="M42.518808,22.436464 C39.8775327,23.6000379 37.3285597,24.9709653 34.8947982,26.5369248 C33.2695184,27.45744 31.8743364,28.7487972 30.8179852,30.3103549 C29.7641835,31.9099977 29.7256316,33.9917009 30.719452,35.6308914 C31.9511175,37.3666693 34.4144486,37.6433875 36.4713301,37.7565904 C40.3199665,38.5913064 44.3106182,37.2456683 46.9158541,34.2347222 L51.3129001,30.1594177 C52.8401654,28.7506705 54.5152305,26.8010649 53.8501311,24.813725 C53.3451483,23.2917749 51.6700831,22.549667 50.1551345,22.2981049 C46.3759559,21.5385357 42.4552274,22.2424782 39.156361,24.2728667" id="Path" fill="#F55F44" opacity="0.05"></path>
                    <circle id="Oval" fill="#F55F44" opacity="0.05" cx="24.5" cy="74.5" r="2.5"></circle>
                    <circle id="Oval" fill="#F55F44" opacity="0.05" cx="79.5" cy="57.5" r="10.5"></circle>
                    <path d="M97,23.1513761 L97,23.1513761 C96.8870077,30.6479468 90.9376091,36.7369419 83.4769417,36.991739 C76.0162744,37.2465361 69.6687836,31.5775049 69.0490149,24.1059595 C68.4292463,16.6344141 73.7552164,9.98862639 81.1550122,9 L81.1550122,9 C87.3211186,12.6119131 92.7078877,17.4229106 97,23.1513761 L97,23.1513761 Z" id="Path" fill="#F55F44" opacity="0.05"></path>
                    <path d="M98,83.888029 C89.0127995,96.8785736 74.6995589,105.014539 59.0993947,106 C59.037273,105.280604 59,104.548586 59,103.816569 C59.0033636,94.4382496 64.2090204,85.8623237 72.4565386,81.6479392 C80.7040567,77.4335546 90.585535,78.3001325 98,83.888029 L98,83.888029 Z" id="Path" fill="#F55F44" opacity="0.05"></path>
                </g>
                <path d="M1052.60528,317.518301 C1049.52379,318.900045 1046.54999,320.528021 1043.7106,322.387598 C1041.81444,323.48071 1040.18673,325.014197 1038.95432,326.868546 C1037.72488,328.768122 1037.6799,331.240145 1038.83936,333.186684 C1040.2763,335.24792 1043.15019,335.576523 1045.54989,335.710951 C1050.03996,336.702176 1054.69572,335.104231 1057.73516,331.528733 L1062.86505,326.689309 C1064.64686,325.016421 1066.6011,322.701265 1065.82515,320.341298 C1065.23601,318.533983 1063.28176,317.65273 1061.51432,317.354 C1057.10528,316.452011 1052.5311,317.287943 1048.68242,319.699029" id="Path" fill="#F55F44" opacity="0.05"></path>
                <circle id="Oval" fill="#F55F44" opacity="0.05" cx="1141" cy="384" r="12"></circle>
                <path d="M191,396.173001 L191,396.173001 C190.870866,404.740511 184.071553,411.699362 175.545076,411.990559 C167.018599,412.281756 159.764324,405.802863 159.056017,397.263954 C158.34771,388.725045 164.434533,381.129859 172.891443,380 L172.891443,380 C179.938421,384.127901 186.094729,389.626184 191,396.173001 L191,396.173001 Z" id="Path" fill="#F55F44" opacity="0.05"></path>
                <path d="M244,726.612181 C233.630153,741.527251 217.114876,750.868544 199.114686,752 C199.043007,751.174026 199,750.333562 199,749.493098 C199.003881,738.725398 205.010408,728.878964 214.526775,724.040226 C224.043142,719.201489 235.444848,720.196448 244,726.612181 L244,726.612181 Z" id="Path" fill="#F55F44" opacity="0.05"></path>
                <circle id="Oval" fill="#535461" opacity="0.25" cx="1045" cy="499" r="7"></circle>
                <circle id="Oval" fill="#535461" opacity="0.25" cx="61" cy="692" r="7"></circle>
                <circle id="Oval" fill="#535461" opacity="0.25" cx="1330" cy="734" r="7"></circle>
                <circle id="Oval" fill="#535461" opacity="0.25" cx="394" cy="215" r="7"></circle>
                <circle id="Oval" fill="#535461" opacity="0.25" cx="184" cy="551" r="7"></circle>
                <polygon id="Path" fill="#535461" opacity="0.25" points="1228 559.222527 1221.76944 559.222527 1221.76944 553 1219.23056 553 1219.23056 559.222527 1213 559.222527 1213 561.777473 1219.23056 561.777473 1219.23056 568 1221.76944 568 1221.76944 561.777473 1228 561.777473"></polygon>
                <polygon id="Path" fill="#535461" opacity="0.25" points="1338 332.222527 1331.76944 332.222527 1331.76944 326 1329.23056 326 1329.23056 332.222527 1323 332.222527 1323 334.777473 1329.23056 334.777473 1329.23056 341 1331.76944 341 1331.76944 334.777473 1338 334.777473"></polygon>
                <polygon id="Path" fill="#535461" opacity="0.25" points="870 206.230558 863.769442 206.230558 863.769442 200 861.230558 200 861.230558 206.230558 855 206.230558 855 208.769442 861.230558 208.769442 861.230558 215 863.769442 215 863.769442 208.769442 870 208.769442"></polygon>
                <polygon id="Path" fill="#535461" opacity="0.25" points="1156 523.222527 1149.76374 523.222527 1149.76374 517 1147.22253 517 1147.22253 523.222527 1141 523.222527 1141 525.777473 1147.22253 525.777473 1147.22253 532 1149.76374 532 1149.76374 525.777473 1156 525.777473"></polygon>
                <polygon id="Path" fill="#535461" opacity="0.25" points="932 371.222527 925.763736 371.222527 925.763736 365 923.222527 365 923.222527 371.222527 917 371.222527 917 373.777473 923.222527 373.777473 923.222527 380 925.763736 380 925.763736 373.777473 932 373.777473"></polygon>
                <polygon id="Path" fill="#535461" opacity="0.25" points="916 741.222527 909.777473 741.222527 909.777473 735 907.236264 735 907.236264 741.222527 901 741.222527 901 743.777473 907.236264 743.777473 907.236264 750 909.777473 750 909.777473 743.777473 916 743.777473"></polygon>
                <polygon id="Path" fill="#535461" opacity="0.25" points="244 291.222527 237.769442 291.222527 237.769442 285 235.230558 285 235.230558 291.222527 229 291.222527 229 293.763736 235.230558 293.763736 235.230558 300 237.769442 300 237.769442 293.763736 244 293.763736"></polygon>
                <polygon id="Path" fill="#535461" opacity="0.25" points="15 371.222527 8.7694419 371.222527 8.7694419 365 6.2305581 365 6.2305581 371.222527 0 371.222527 0 373.763736 6.2305581 373.763736 6.2305581 380 8.7694419 380 8.7694419 373.763736 15 373.763736"></polygon>
                <polygon id="Path" fill="#535461" opacity="0.25" points="334 648.230558 327.763736 648.230558 327.763736 642 325.222527 642 325.222527 648.230558 319 648.230558 319 650.769442 325.222527 650.769442 325.222527 657 327.763736 657 327.763736 650.769442 334 650.769442"></polygon>
                <circle id="Oval" fill="url(#linearGradient-7)" cx="1116" cy="1059" r="20"></circle>
                <g id="Group" opacity="0.4" transform="translate(334.000000, 492.000000)" fill="url(#linearGradient-8)">
                    <path d="M54.885814,12.302576 L54.885814,12.302576 C52.4426502,9.07068033 49.3805127,6.35751833 45.8779472,4.32128801 L45.8779472,4.32128801 C34.8669021,-2.08803668 21.0202018,-0.910649155 11.2493845,7.26576123 C1.47856709,15.4421716 -2.12135997,28.8644618 2.24649582,40.8329368 C6.61435161,52.8014119 18.0134575,60.7498541 30.7539848,60.710966 C31.3901744,60.710966 32.0408229,60.710966 32.6625537,60.710966 C43.7628912,60.0007877 53.5779579,53.2557668 58.2198,43.1476045 C62.8616421,33.0394421 61.58125,21.1991956 54.885814,12.3170349 L54.885814,12.302576 Z" id="Path"></path>
                </g>
                <path d="M394,522.557774 C393.999407,537.597926 382.306248,550.049055 367.288955,551 C366.697626,551 366.091873,551 365.486121,551 C353.505644,550.987848 342.81053,543.491512 338.71728,532.237394 C334.624029,520.983276 338.005764,508.371962 347.181435,500.672489 C356.357107,492.973017 369.369477,491.82774 379.750144,497.805973 L379.750144,497.805973 C383.051153,499.722947 385.938606,502.275814 388.245098,505.316566 L388.245098,505.316566 C392.004024,510.276844 394.026162,516.335268 394,522.557774 L394,522.557774 Z" id="Path" fill="#00D2D3" opacity="0.2"></path>
                <path d="M357.837198,504.292253 C356.378931,504.86882 354.971143,505.552146 353.626832,506.335921 C352.7459,506.787917 351.987244,507.423961 351.409372,508.194999 C350.863543,508.999208 350.863543,510.027779 351.409372,510.831989 C352.234915,511.592999 353.372549,511.97814 354.525043,511.886785 C356.595318,512.285011 358.734607,511.616758 360.138865,510.133187 L362.52474,508.102704 C363.352778,507.390717 364.265024,506.428215 363.928195,505.465714 C363.545419,504.725156 362.779547,504.225497 361.907219,504.147219 C359.857256,503.770424 357.731393,504.122866 355.942533,505.13609" id="Path" fill="#F55F44" opacity="0.1"></path>
                <circle id="Oval" fill="#F55F44" opacity="0.1" cx="348" cy="534" r="2"></circle>
                <circle id="Oval" fill="#F55F44" opacity="0.1" cx="377.5" cy="524.5" r="5.5"></circle>
                <path d="M388,505.562281 L388,505.562281 C387.949195,509.580154 384.767763,512.850747 380.769851,512.995058 C376.77194,513.139368 373.364979,510.106594 373.027163,506.102749 C372.689348,502.098904 375.539603,498.533508 379.504678,498 L379.504678,498 C382.807164,499.930723 385.694839,502.501244 388,505.562281 L388,505.562281 Z" id="Path" fill="#F55F44" opacity="0.1"></path>
                <path d="M387.874,537.756715 C383.053461,544.947355 375.372736,549.452367 367,550 C367,549.604109 367,549.193556 367,548.783003 C366.984104,543.568535 369.788098,538.794052 374.238924,536.457088 C378.689749,534.120125 384.020146,534.623539 388,537.756715 L387.874,537.756715 Z" id="Path" fill="#F55F44" opacity="0.1"></path>
            </g>
        </g>
    </g>
</svg>