<?xml version="1.0" encoding="UTF-8"?>
<svg width="1833px" height="1051px" viewBox="0 0 1833 1051" version="1.1" xmlns="http://www.w3.org/2000/svg" xmlns:xlink="http://www.w3.org/1999/xlink">
    <!-- Generator: Sketch 55.1 (78136) - https://sketchapp.com -->
    <title>Group 3</title>
    <desc>Created with Sketch.</desc>
    <defs>
        <linearGradient x1="50%" y1="100%" x2="50%" y2="0%" id="linearGradient-1">
            <stop stop-color="#808080" stop-opacity="0.25" offset="0%"></stop>
            <stop stop-color="#808080" stop-opacity="0.12" offset="54%"></stop>
            <stop stop-color="#808080" stop-opacity="0.1" offset="100%"></stop>
        </linearGradient>
        <linearGradient x1="50%" y1="100%" x2="50%" y2="0.0343170899%" id="linearGradient-2">
            <stop stop-color="#808080" stop-opacity="0.25" offset="0%"></stop>
            <stop stop-color="#808080" stop-opacity="0.12" offset="54%"></stop>
            <stop stop-color="#808080" stop-opacity="0.1" offset="100%"></stop>
        </linearGradient>
        <linearGradient x1="50%" y1="100%" x2="50%" y2="0%" id="linearGradient-3">
            <stop stop-color="#808080" stop-opacity="0.25" offset="0%"></stop>
            <stop stop-color="#808080" stop-opacity="0.12" offset="54%"></stop>
            <stop stop-color="#808080" stop-opacity="0.1" offset="100%"></stop>
        </linearGradient>
        <linearGradient x1="49.9540293%" y1="99.9430785%" x2="49.9540293%" y2="-0.0566800544%" id="linearGradient-4">
            <stop stop-color="#808080" stop-opacity="0.25" offset="0%"></stop>
            <stop stop-color="#808080" stop-opacity="0.12" offset="54%"></stop>
            <stop stop-color="#808080" stop-opacity="0.1" offset="100%"></stop>
        </linearGradient>
        <linearGradient x1="49.9540293%" y1="99.9430785%" x2="49.9540293%" y2="-0.0566800544%" id="linearGradient-5">
            <stop stop-color="#808080" stop-opacity="0.25" offset="0%"></stop>
            <stop stop-color="#808080" stop-opacity="0.12" offset="54%"></stop>
            <stop stop-color="#808080" stop-opacity="0.1" offset="100%"></stop>
        </linearGradient>
        <linearGradient x1="50.0721261%" y1="100.095365%" x2="50.0721261%" y2="0.0957582806%" id="linearGradient-6">
            <stop stop-color="#808080" stop-opacity="0.25" offset="0%"></stop>
            <stop stop-color="#808080" stop-opacity="0.12" offset="54%"></stop>
            <stop stop-color="#808080" stop-opacity="0.1" offset="100%"></stop>
        </linearGradient>
        <linearGradient x1="50%" y1="100%" x2="50%" y2="0%" id="linearGradient-7">
            <stop stop-color="#808080" stop-opacity="0.25" offset="0%"></stop>
            <stop stop-color="#808080" stop-opacity="0.12" offset="54%"></stop>
            <stop stop-color="#808080" stop-opacity="0.1" offset="100%"></stop>
        </linearGradient>
        <linearGradient x1="50%" y1="100%" x2="50%" y2="0.0343170899%" id="linearGradient-8">
            <stop stop-color="#808080" stop-opacity="0.25" offset="0%"></stop>
            <stop stop-color="#808080" stop-opacity="0.12" offset="54%"></stop>
            <stop stop-color="#808080" stop-opacity="0.1" offset="100%"></stop>
        </linearGradient>
        <linearGradient x1="50.0721261%" y1="100.095365%" x2="50.0721261%" y2="0.0957582806%" id="linearGradient-9">
            <stop stop-color="#808080" stop-opacity="0.25" offset="0%"></stop>
            <stop stop-color="#808080" stop-opacity="0.12" offset="54%"></stop>
            <stop stop-color="#808080" stop-opacity="0.1" offset="100%"></stop>
        </linearGradient>
    </defs>
    <g id="Page-1" stroke="none" stroke-width="1" fill="none" fill-rule="evenodd">
        <g id="Artboard" transform="translate(0.000000, -29.000000)" fill-rule="nonzero">
            <g id="Group-3" transform="translate(0.000000, -81.000000)">
                <g id="space" transform="translate(540.000000, 669.000000) rotate(-90.000000) translate(-540.000000, -669.000000) translate(-129.000000, 129.000000)">
                    <g id="Group" opacity="0.7" transform="translate(1008.000000, 853.000000)" fill="url(#linearGradient-1)">
                        <ellipse id="Oval" cx="19.3988889" cy="19.2965584" rx="19.2977778" ry="19.1724675"></ellipse>
                    </g>
                    <g id="Group" opacity="0.7" transform="translate(1094.000000, 1036.000000)" fill="url(#linearGradient-2)">
                        <ellipse id="Oval" cx="21.5226944" cy="22.264" rx="21.4637685" ry="21.3693333"></ellipse>
                    </g>
                    <g id="Group" opacity="0.7" transform="translate(192.000000, 916.000000)" fill="url(#linearGradient-3)">
                        <ellipse id="Oval" cx="23.03" cy="23.0893551" rx="22.8021212" ry="22.8891997"></ellipse>
                    </g>
                    <g id="Group" opacity="0.4" transform="translate(971.000000, 0.000000)" fill="url(#linearGradient-4)">
                        <path d="M115.134482,25.4109091 C109.983419,18.5899875 103.5295,12.8642829 96.1486142,8.56727273 C72.9431115,-4.7957538 43.8789641,-2.21124352 23.3843025,15.0377915 C2.88964098,32.2868265 -4.67130517,60.5272957 4.45489671,85.7399618 C13.5810986,110.952628 37.4510722,127.768587 64.2151977,127.84 C65.5651103,127.84 66.9150229,127.84 68.2504203,127.709091 C91.6599664,126.229312 112.366623,111.984362 122.156831,90.6246812 C131.94704,69.2650008 129.238447,44.2428704 115.105452,25.4836364 L115.134482,25.4109091 Z" id="Path"></path>
                    </g>
                    <path d="M1096,63.4856695 C1096.00255,95.4123746 1071.18909,121.846008 1039.31779,123.868827 C1038.04944,123.956276 1036.76651,124 1035.48358,124 C1010.05101,123.984949 987.341577,108.074374 978.648218,84.1802698 C969.954859,60.2861658 977.132785,33.50768 996.612563,17.1611931 C1016.09234,0.814706216 1043.71687,-1.61134241 1065.74905,11.0894705 L1065.74905,11.0894705 C1072.7602,15.1600564 1078.89064,20.58527 1083.78295,27.0488134 L1083.78295,27.0488134 C1091.72818,37.5336858 1096.01929,50.331801 1096,63.4856695 Z" id="Path" fill="#00D2D3" opacity="0.2"></path>
                    <path d="M1213,936.490644 C1213.00167,957.335352 1196.80114,974.593675 1175.99261,975.914358 C1175.16451,975.971453 1174.32689,976 1173.48928,976 C1156.88454,975.990173 1142.05772,965.602277 1136.38189,950.001994 C1130.70607,934.401712 1135.39248,916.918237 1148.11068,906.245738 C1160.82888,895.573238 1178.86473,893.989289 1193.24938,902.281555 L1193.24938,902.281555 C1197.82691,904.93921 1201.82943,908.481292 1205.02358,912.701291 L1205.02358,912.701291 C1210.21096,919.546787 1213.01259,927.902581 1213,936.490644 Z" id="Path" fill="#00D2D3" opacity="0.2"></path>
                    <path d="M1072,668.99621 C1072.00067,677.439636 1065.43844,684.430349 1057.00966,684.96531 C1056.67423,684.988437 1056.33494,685 1055.99566,685 C1049.26969,684.99602 1043.26389,680.788264 1040.96482,674.469162 C1038.66575,668.15006 1040.56404,661.068147 1045.71572,656.745109 C1050.8674,652.422071 1058.17306,651.780471 1063.99975,655.139364 L1063.99975,655.139364 C1065.85394,656.215883 1067.47521,657.65065 1068.76904,659.360017 L1068.76904,659.360017 C1070.87026,662.132876 1072.0051,665.517501 1072,668.99621 Z" id="Path" fill="#00D2D3" opacity="0.2"></path>
                    <path d="M1020.60528,25.5183011 C1017.52379,26.900045 1014.54999,28.5280212 1011.7106,30.3875982 C1009.81444,31.48071 1008.18673,33.0141966 1006.95432,34.8685465 C1005.72488,36.7681223 1005.6799,39.2401448 1006.83936,41.1866835 C1008.2763,43.2479197 1011.15019,43.5765226 1013.54989,43.7109511 C1018.03996,44.7021763 1022.69572,43.1042311 1025.73516,39.5287327 L1030.86505,34.6893085 C1032.64686,33.0164212 1034.6011,30.7012646 1033.82515,28.3412985 C1033.23601,26.5339827 1031.28176,25.6527295 1029.51432,25.3539996 C1025.10528,24.4520111 1020.5311,25.2879429 1016.68242,27.6990292" id="Path" fill="#F55F44" opacity="0.05"></path>
                    <circle id="Oval" fill="#F55F44" opacity="0.05" cx="999" cy="87" r="3"></circle>
                    <circle id="Oval" fill="#F55F44" opacity="0.05" cx="1064" cy="67" r="12"></circle>
                    <path d="M1084,27.1730013 L1084,27.1730013 C1083.87087,35.7405106 1077.07155,42.6993622 1068.54508,42.9905589 C1060.0186,43.2817555 1052.76432,36.8028628 1052.05602,28.2639537 C1051.34771,19.7250447 1057.43453,12.1298587 1065.89144,11 L1065.89144,11 C1072.93842,15.1279007 1079.09473,20.6261836 1084,27.1730013 L1084,27.1730013 Z" id="Path" fill="#F55F44" opacity="0.05"></path>
                    <path d="M1085,97.6121814 C1074.63015,112.527251 1058.11488,121.868544 1040.11469,123 C1040.04301,122.174026 1040,121.333562 1040,120.493098 C1040.00388,109.725398 1046.01041,99.8789642 1055.52678,95.0402264 C1065.04314,90.2014886 1076.44485,91.1964484 1085,97.6121814 L1085,97.6121814 Z" id="Path" fill="#F55F44" opacity="0.05"></path>
                    <g id="Group-2" transform="translate(104.000000, 207.000000)">
                        <g id="Group" opacity="0.4" fill="url(#linearGradient-5)">
                            <path d="M98.9436954,21.8375 C94.5170008,15.9757705 88.9706639,11.0552431 82.6277154,7.3625 C62.6854865,-4.12135092 37.7084847,-1.9002874 20.095885,12.9231021 C2.48328522,27.7464915 -4.01440288,52.0156448 3.82842686,73.6827797 C11.6712566,95.3499147 32.1845152,109.80113 55.1849355,109.8625 C56.3450166,109.8625 57.5050978,109.8625 58.652705,109.75 C78.7702837,108.478315 96.5650667,96.2365608 104.978527,77.8805854 C113.391987,59.52461 111.064291,38.0212167 98.9187474,21.9 L98.9436954,21.8375 Z" id="Path"></path>
                        </g>
                        <path d="M107,54.9876828 C107.002192,82.4288178 85.6749206,105.148635 58.2814049,106.887257 C57.1912524,106.962419 56.0885694,107 54.9858865,107 C33.1264842,106.987064 13.6076369,93.3118584 6.13565886,72.7747773 C-1.33631913,52.2376963 4.83313759,29.221477 21.5760873,15.171604 C38.3190369,1.12173096 62.0624327,-0.963467855 80.9991805,9.95293329 L80.9991805,9.95293329 C87.0252954,13.4516187 92.294433,18.1146123 96.4993947,23.6700545 L96.4993947,23.6700545 C103.328354,32.6818456 107.016577,43.6818786 107,54.9876828 Z" id="Path" fill="#00D2D3" opacity="0.2"></path>
                        <circle id="Oval" fill="#F55F44" opacity="0.05" cx="79.5" cy="57.5" r="10.5"></circle>
                        <path d="M97,23.1513761 L97,23.1513761 C96.8870077,30.6479468 90.9376091,36.7369419 83.4769417,36.991739 C76.0162744,37.2465361 69.6687836,31.5775049 69.0490149,24.1059595 C68.4292463,16.6344141 73.7552164,9.98862639 81.1550122,9 L81.1550122,9 C87.3211186,12.6119131 92.7078877,17.4229106 97,23.1513761 L97,23.1513761 Z" id="Path" fill="#F55F44" opacity="0.05"></path>
                        <path d="M98,83.888029 C89.0127995,96.8785736 74.6995589,105.014539 59.0993947,106 C59.037273,105.280604 59,104.548586 59,103.816569 C59.0033636,94.4382496 64.2090204,85.8623237 72.4565386,81.6479392 C80.7040567,77.4335546 90.585535,78.3001325 98,83.888029 L98,83.888029 Z" id="Path" fill="#F55F44" opacity="0.05"></path>
                    </g>
                    <path d="M1052.60528,317.518301 C1049.52379,318.900045 1046.54999,320.528021 1043.7106,322.387598 C1041.81444,323.48071 1040.18673,325.014197 1038.95432,326.868546 C1037.72488,328.768122 1037.6799,331.240145 1038.83936,333.186684 C1040.2763,335.24792 1043.15019,335.576523 1045.54989,335.710951 C1050.03996,336.702176 1054.69572,335.104231 1057.73516,331.528733 L1062.86505,326.689309 C1064.64686,325.016421 1066.6011,322.701265 1065.82515,320.341298 C1065.23601,318.533983 1063.28176,317.65273 1061.51432,317.354 C1057.10528,316.452011 1052.5311,317.287943 1048.68242,319.699029" id="Path" fill="#F55F44" opacity="0.05"></path>
                    <circle id="Oval" fill="#F55F44" opacity="0.05" cx="1141" cy="384" r="12"></circle>
                    <path d="M191,396.173001 L191,396.173001 C190.870866,404.740511 184.071553,411.699362 175.545076,411.990559 C167.018599,412.281756 159.764324,405.802863 159.056017,397.263954 C158.34771,388.725045 164.434533,381.129859 172.891443,380 L172.891443,380 C179.938421,384.127901 186.094729,389.626184 191,396.173001 L191,396.173001 Z" id="Path" fill="#F55F44" opacity="0.05"></path>
                    <path d="M244,726.612181 C233.630153,741.527251 217.114876,750.868544 199.114686,752 C199.043007,751.174026 199,750.333562 199,749.493098 C199.003881,738.725398 205.010408,728.878964 214.526775,724.040226 C224.043142,719.201489 235.444848,720.196448 244,726.612181 L244,726.612181 Z" id="Path" fill="#F55F44" opacity="0.05"></path>
                    <circle id="Oval" fill="#535461" opacity="0.25" cx="1045" cy="499" r="7"></circle>
                    <circle id="Oval" fill="#535461" opacity="0.25" cx="394" cy="215" r="7"></circle>
                    <circle id="Oval" fill="#535461" opacity="0.25" cx="184" cy="551" r="7"></circle>
                    <polygon id="Path" fill="#535461" opacity="0.25" points="1228 559.222527 1221.76944 559.222527 1221.76944 553 1219.23056 553 1219.23056 559.222527 1213 559.222527 1213 561.777473 1219.23056 561.777473 1219.23056 568 1221.76944 568 1221.76944 561.777473 1228 561.777473"></polygon>
                    <polygon id="Path" fill="#535461" opacity="0.25" points="870 206.230558 863.769442 206.230558 863.769442 200 861.230558 200 861.230558 206.230558 855 206.230558 855 208.769442 861.230558 208.769442 861.230558 215 863.769442 215 863.769442 208.769442 870 208.769442"></polygon>
                    <polygon id="Path" fill="#535461" opacity="0.25" points="1156 523.222527 1149.76374 523.222527 1149.76374 517 1147.22253 517 1147.22253 523.222527 1141 523.222527 1141 525.777473 1147.22253 525.777473 1147.22253 532 1149.76374 532 1149.76374 525.777473 1156 525.777473"></polygon>
                    <polygon id="Path" fill="#535461" opacity="0.25" points="932 371.222527 925.763736 371.222527 925.763736 365 923.222527 365 923.222527 371.222527 917 371.222527 917 373.777473 923.222527 373.777473 923.222527 380 925.763736 380 925.763736 373.777473 932 373.777473"></polygon>
                    <polygon id="Path" fill="#535461" opacity="0.25" points="916 741.222527 909.777473 741.222527 909.777473 735 907.236264 735 907.236264 741.222527 901 741.222527 901 743.777473 907.236264 743.777473 907.236264 750 909.777473 750 909.777473 743.777473 916 743.777473"></polygon>
                    <polygon id="Path" fill="#535461" opacity="0.25" points="244 291.222527 237.769442 291.222527 237.769442 285 235.230558 285 235.230558 291.222527 229 291.222527 229 293.763736 235.230558 293.763736 235.230558 300 237.769442 300 237.769442 293.763736 244 293.763736"></polygon>
                    <polygon id="Path" fill="#535461" opacity="0.25" points="334 648.230558 327.763736 648.230558 327.763736 642 325.222527 642 325.222527 648.230558 319 648.230558 319 650.769442 325.222527 650.769442 325.222527 657 327.763736 657 327.763736 650.769442 334 650.769442"></polygon>
                    <g id="Group" opacity="0.4" transform="translate(334.000000, 492.000000)" fill="url(#linearGradient-6)">
                        <path d="M54.885814,12.302576 L54.885814,12.302576 C52.4426502,9.07068033 49.3805127,6.35751833 45.8779472,4.32128801 L45.8779472,4.32128801 C34.8669021,-2.08803668 21.0202018,-0.910649155 11.2493845,7.26576123 C1.47856709,15.4421716 -2.12135997,28.8644618 2.24649582,40.8329368 C6.61435161,52.8014119 18.0134575,60.7498541 30.7539848,60.710966 C31.3901744,60.710966 32.0408229,60.710966 32.6625537,60.710966 C43.7628912,60.0007877 53.5779579,53.2557668 58.2198,43.1476045 C62.8616421,33.0394421 61.58125,21.1991956 54.885814,12.3170349 L54.885814,12.302576 Z" id="Path"></path>
                    </g>
                    <path d="M394,522.557774 C393.999407,537.597926 382.306248,550.049055 367.288955,551 C366.697626,551 366.091873,551 365.486121,551 C353.505644,550.987848 342.81053,543.491512 338.71728,532.237394 C334.624029,520.983276 338.005764,508.371962 347.181435,500.672489 C356.357107,492.973017 369.369477,491.82774 379.750144,497.805973 L379.750144,497.805973 C383.051153,499.722947 385.938606,502.275814 388.245098,505.316566 L388.245098,505.316566 C392.004024,510.276844 394.026162,516.335268 394,522.557774 L394,522.557774 Z" id="Path" fill="#00D2D3" opacity="0.2"></path>
                    <path d="M357.837198,504.292253 C356.378931,504.86882 354.971143,505.552146 353.626832,506.335921 C352.7459,506.787917 351.987244,507.423961 351.409372,508.194999 C350.863543,508.999208 350.863543,510.027779 351.409372,510.831989 C352.234915,511.592999 353.372549,511.97814 354.525043,511.886785 C356.595318,512.285011 358.734607,511.616758 360.138865,510.133187 L362.52474,508.102704 C363.352778,507.390717 364.265024,506.428215 363.928195,505.465714 C363.545419,504.725156 362.779547,504.225497 361.907219,504.147219 C359.857256,503.770424 357.731393,504.122866 355.942533,505.13609" id="Path" fill="#F55F44" opacity="0.1"></path>
                    <circle id="Oval" fill="#F55F44" opacity="0.1" cx="348" cy="534" r="2"></circle>
                    <circle id="Oval" fill="#F55F44" opacity="0.1" cx="377.5" cy="524.5" r="5.5"></circle>
                    <path d="M388,505.562281 L388,505.562281 C387.949195,509.580154 384.767763,512.850747 380.769851,512.995058 C376.77194,513.139368 373.364979,510.106594 373.027163,506.102749 C372.689348,502.098904 375.539603,498.533508 379.504678,498 L379.504678,498 C382.807164,499.930723 385.694839,502.501244 388,505.562281 L388,505.562281 Z" id="Path" fill="#F55F44" opacity="0.1"></path>
                    <path d="M387.874,537.756715 C383.053461,544.947355 375.372736,549.452367 367,550 C367,549.604109 367,549.193556 367,548.783003 C366.984104,543.568535 369.788098,538.794052 374.238924,536.457088 C378.689749,534.120125 384.020146,534.623539 388,537.756715 L387.874,537.756715 Z" id="Path" fill="#F55F44" opacity="0.1"></path>
                </g>
                <g id="space" transform="translate(1780.000000, 750.000000) scale(-1, 1) rotate(-90.000000) translate(-1780.000000, -750.000000) translate(1030.000000, 144.000000)">
                    <g id="Group" opacity="0.7" transform="translate(1130.000000, 957.000000)" fill="url(#linearGradient-7)">
                        <ellipse id="Oval" cx="21.8859259" cy="21.7704762" rx="21.7718519" ry="21.6304762"></ellipse>
                    </g>
                    <g id="Group" opacity="0.7" transform="translate(1226.500000, 1162.500000)" fill="url(#linearGradient-8)">
                        <ellipse id="Oval" cx="24.0253333" cy="24.794" rx="23.9595556" ry="23.7976667"></ellipse>
                    </g>
                    <path d="M1355,764.489459 C1355.00188,787.972738 1336.75065,807.415659 1313.30813,808.903518 C1312.37521,808.967839 1311.43156,809 1310.48792,809 C1291.78132,808.98893 1275.07769,797.28611 1268.6834,779.711108 C1262.28911,762.136105 1267.56874,742.439533 1281.89684,730.416084 C1296.22495,718.392635 1316.54381,716.608186 1332.7493,725.950106 L1332.7493,725.950106 C1337.90626,728.944174 1342.41543,732.93462 1346.01391,737.688797 L1346.01391,737.688797 C1351.85792,745.40081 1355.01419,754.8143 1355,764.489459 Z" id="Path" fill="#00D2D3" opacity="0.2"></path>
                    <path d="M1202,750.995736 C1202.00076,760.494591 1194.61824,768.359143 1185.13587,768.960973 C1184.75851,768.986991 1184.37681,769 1183.99511,769 C1176.4284,768.995522 1169.67187,764.261797 1167.08542,757.152808 C1164.49897,750.043818 1166.63455,742.076665 1172.43018,737.213248 C1178.22582,732.34983 1186.44469,731.62803 1192.99972,735.406785 L1192.99972,735.406785 C1195.08568,736.617868 1196.90961,738.231981 1198.36518,740.155019 L1198.36518,740.155019 C1200.72905,743.274485 1202.00574,747.082189 1202,750.995736 Z" id="Path" fill="#00D2D3" opacity="0.2"></path>
                    <circle id="Oval" fill="#535461" opacity="0.25" cx="1172" cy="561" r="8"></circle>
                    <polygon id="Path" fill="#535461" opacity="0.25" points="1377 628.052198 1369.9387 628.052198 1369.9387 621 1367.0613 621 1367.0613 628.052198 1360 628.052198 1360 630.947802 1367.0613 630.947802 1367.0613 638 1369.9387 638 1369.9387 630.947802 1377 630.947802"></polygon>
                    <polygon id="Path" fill="#535461" opacity="0.25" points="1296 588.052198 1288.93223 588.052198 1288.93223 581 1286.0522 581 1286.0522 588.052198 1279 588.052198 1279 590.947802 1286.0522 590.947802 1286.0522 598 1288.93223 598 1288.93223 590.947802 1296 590.947802"></polygon>
                    <polygon id="Path" fill="#535461" opacity="0.25" points="1027 832.052198 1019.9478 832.052198 1019.9478 825 1017.06777 825 1017.06777 832.052198 1010 832.052198 1010 834.947802 1017.06777 834.947802 1017.06777 842 1019.9478 842 1019.9478 834.947802 1027 834.947802"></polygon>
                    <polygon id="Path" fill="#535461" opacity="0.25" points="375 728.061299 367.932234 728.061299 367.932234 721 365.052198 721 365.052198 728.061299 358 728.061299 358 730.938701 365.052198 730.938701 365.052198 738 367.932234 738 367.932234 730.938701 375 730.938701"></polygon>
                    <g id="Group" opacity="0.4" transform="translate(375.000000, 553.000000)" fill="url(#linearGradient-9)">
                        <path d="M61.184186,13.714347 L61.184186,13.714347 C58.4606593,10.1115781 55.0471289,7.08706961 51.1426297,4.81717352 L51.1426297,4.81717352 C38.868022,-2.32764745 23.4323561,-1.01514988 12.5402974,8.0995371 C1.64823873,17.2142241 -2.36479472,32.1767771 2.50429042,45.5186837 C7.37337556,58.8605903 20.0805756,67.7211488 34.2831306,67.6777982 C34.9923256,67.6777982 35.7176386,67.6777982 36.4107156,67.6777982 C48.7848623,66.886124 59.7262482,59.3670843 64.9007607,48.0989689 C70.0752732,36.8308535 68.6479509,23.6318902 61.184186,13.7304651 L61.184186,13.714347 Z" id="Path"></path>
                    </g>
                    <path d="M442,587.064869 C441.999334,603.952057 428.870173,617.932272 412.008651,619 C411.344702,619 410.66456,619 409.984417,619 C396.532653,618.986355 384.524104,610.569417 379.928174,597.933214 C375.332243,585.297011 379.129278,571.136939 389.431787,562.491918 C399.734295,553.846896 414.344675,552.560972 426.000162,559.273373 L426.000162,559.273373 C429.706557,561.425765 432.94861,564.292142 435.538356,567.70632 L435.538356,567.70632 C439.758904,573.275754 442.029374,580.078195 442,587.064869 L442,587.064869 Z" id="Path" fill="#00D2D3" opacity="0.2"></path>
                    <path d="M400.889075,566.328785 C399.206459,566.977423 397.582088,567.746164 396.03096,568.627911 C395.0145,569.136407 394.139127,569.851956 393.472353,570.719374 C392.842549,571.624109 392.842549,572.781252 393.472353,573.685988 C394.424902,574.542124 395.737557,574.975407 397.067358,574.872633 C399.456136,575.320638 401.924546,574.568853 403.544845,572.899835 L406.297776,570.615542 C407.253206,569.814556 408.305797,568.731742 407.917148,567.648928 C407.475484,566.815801 406.591785,566.253685 405.585253,566.165621 C403.21991,565.741727 400.766992,566.138224 398.702923,567.278102" id="Path" fill="#F55F44" opacity="0.1"></path>
                    <circle id="Oval" fill="#F55F44" opacity="0.1" cx="390" cy="600" r="2"></circle>
                    <circle id="Oval" fill="#F55F44" opacity="0.1" cx="423" cy="589" r="6"></circle>
                    <path d="M435,567.570585 L435,567.570585 C434.942421,572.124175 431.336798,575.830846 426.805832,575.994399 C422.274865,576.157951 418.413643,572.720807 418.030785,568.183115 C417.647928,563.645424 420.878217,559.604642 425.371968,559 L425.371968,559 C429.114786,561.188152 432.387484,564.10141 435,567.570585 L435,567.570585 Z" id="Path" fill="#F55F44" opacity="0.1"></path>
                    <path d="M435.356,603.624277 C429.846813,611.773669 421.068841,616.879349 411.5,617.5 C411.5,617.051324 411.5,616.58603 411.5,616.120736 C411.481833,610.211006 414.686398,604.799926 419.773056,602.151367 C424.859713,599.502808 430.951596,600.073344 435.5,603.624277 L435.356,603.624277 Z" id="Path" fill="#F55F44" opacity="0.1"></path>
                </g>
            </g>
        </g>
    </g>
</svg>